<svg width="26" height="26" viewBox="0 0 26 26" fill="none" xmlns="http://www.w3.org/2000/svg">
<g clip-path="url(#clip0_470_2254)">
<g clip-path="url(#clip1_470_2254)">
<path fill-rule="evenodd" clip-rule="evenodd" d="M15.4537 1.65818L15.3856 1.57423C15.0256 1.18247 14.3809 1.21043 14.0615 1.65813L8.10538 10.0071L7.96568 10.209C5.3775 14.072 6.54978 19.3384 10.5798 21.7333C11.6127 22.3467 12.7475 22.714 13.9025 22.8351L13.9032 25.1474L13.9089 25.2468C13.9583 25.6708 14.3194 26 14.7576 26C15.2295 26 15.612 25.6183 15.612 25.1474L15.6118 22.8351C16.7668 22.714 17.9015 22.3468 18.9343 21.7335L19.1435 21.6049L19.3482 21.4702C23.1199 18.9092 24.0729 13.7403 21.4089 10.007L15.4537 1.65818ZM25.648 19.4031C25.7429 18.9419 25.445 18.4912 24.9827 18.3966C24.5205 18.302 24.0689 18.5993 23.9741 19.0606C23.8417 19.7044 23.5344 20.2645 23.0997 20.7456C22.8874 20.9806 22.659 21.1805 22.4322 21.344L22.2945 21.4392L22.0831 21.5678C21.7306 21.8097 21.6081 22.2822 21.8131 22.6687C22.0339 23.0849 22.5509 23.2436 22.968 23.0233C23.341 22.8262 23.8564 22.4546 24.3688 21.8875C24.9962 21.1932 25.4502 20.3657 25.648 19.4031ZM14.7575 8.73433C14.3194 8.73433 13.9582 9.06348 13.9089 9.48752L13.9031 9.58696L13.9028 12.8176L12.6057 11.4936L12.5259 11.4218C12.1937 11.1581 11.7088 11.1764 11.3974 11.4803C11.086 11.7843 11.057 12.2676 11.3139 12.605L11.3841 12.6861L13.8405 15.1919L13.9028 15.2484L13.9031 19.179L13.9089 19.2784C13.9582 19.7025 14.3194 20.0316 14.7575 20.0316C15.162 20.0316 15.5008 19.7512 15.5894 19.3745L15.6062 19.2784L15.6108 19.1944L18.4947 16.1001L18.5628 16.0173C18.8111 15.6736 18.7698 15.1911 18.4508 14.8951C18.1318 14.5991 17.6466 14.5931 17.3211 14.8652L17.2433 14.939L15.6116 16.6893L15.612 9.58696L15.6062 9.48752C15.5569 9.06348 15.1957 8.73433 14.7575 8.73433ZM6.76795 8.53019C7.0357 8.20136 7.02241 7.71733 6.72108 7.40345C6.39464 7.06342 5.85378 7.05184 5.51303 7.37759C5.18494 7.69124 4.72719 8.25832 4.27745 9.06988C3.91263 9.72821 3.61509 10.4525 3.40813 11.2405C3.28849 11.696 3.56155 12.162 4.01801 12.2814C4.47447 12.4008 4.94149 12.1283 5.06113 11.6728C5.23083 11.0267 5.47457 10.4334 5.77286 9.89511C5.98409 9.51394 6.20932 9.18396 6.43232 8.9077L6.568 8.74567L6.76795 8.53019Z" fill="#BDBDBD"/>
</g>
</g>
<defs>
<clipPath id="clip0_470_2254">
<rect width="26" height="26" fill="white"/>
</clipPath>
<clipPath id="clip1_470_2254">
<rect width="26" height="26" fill="white" transform="translate(2.08002)"/>
</clipPath>
</defs>
</svg>
