<svg width="52" height="45" viewBox="0 0 52 45" fill="none" xmlns="http://www.w3.org/2000/svg">
<g filter="url(#filter0_d_470_2127)">
<path d="M28.6743 23.2613C27.8782 23.8149 26.9534 24.1076 26 24.1076C25.0466 24.1076 24.1219 23.8149 23.3257 23.2613L10.2131 14.1423C10.1403 14.0917 10.0694 14.039 10 13.9848V28.9272C10 30.6404 11.3328 32 12.9458 32H39.0541C40.6965 32 41.9999 30.6097 41.9999 28.9272V13.9847C41.9304 14.0391 41.8594 14.0919 41.7864 14.1426L28.6743 23.2613Z" fill="url(#paint0_linear_470_2127)"/>
<path d="M11.2531 12.5149L24.3658 21.634C24.8622 21.9792 25.4311 22.1518 25.9999 22.1518C26.5689 22.1518 27.1378 21.9791 27.6342 21.634L40.7469 12.5149C41.5316 11.9696 42 11.0569 42 10.0718C42 8.37795 40.6789 7 39.0552 7H12.9448C11.3211 7.00007 10 8.37802 10 10.0734C10 11.0569 10.4685 11.9696 11.2531 12.5149Z" fill="url(#paint1_linear_470_2127)"/>
</g>
<g filter="url(#filter1_d_470_2127)">
<rect x="30" y="2" width="15" height="15" rx="7.5" fill="#E82C13" fill-opacity="0.9" shape-rendering="crispEdges"/>
<path d="M37.5476 12.3413H38.532V6H37.5476L35.8777 7.18652V8.15332L37.4729 7.01514H37.5476V12.3413Z" fill="white"/>
</g>
<defs>
<filter id="filter0_d_470_2127" x="0" y="0" width="52" height="45" filterUnits="userSpaceOnUse" color-interpolation-filters="sRGB">
<feFlood flood-opacity="0" result="BackgroundImageFix"/>
<feColorMatrix in="SourceAlpha" type="matrix" values="0 0 0 0 0 0 0 0 0 0 0 0 0 0 0 0 0 0 127 0" result="hardAlpha"/>
<feOffset dy="3"/>
<feGaussianBlur stdDeviation="5"/>
<feComposite in2="hardAlpha" operator="out"/>
<feColorMatrix type="matrix" values="0 0 0 0 0 0 0 0 0 0 0 0 0 0 0 0 0 0 0.16 0"/>
<feBlend mode="normal" in2="BackgroundImageFix" result="effect1_dropShadow_470_2127"/>
<feBlend mode="normal" in="SourceGraphic" in2="effect1_dropShadow_470_2127" result="shape"/>
</filter>
<filter id="filter1_d_470_2127" x="-15" y="-43" width="105" height="105" filterUnits="userSpaceOnUse" color-interpolation-filters="sRGB">
<feFlood flood-opacity="0" result="BackgroundImageFix"/>
<feColorMatrix in="SourceAlpha" type="matrix" values="0 0 0 0 0 0 0 0 0 0 0 0 0 0 0 0 0 0 127 0" result="hardAlpha"/>
<feOffset dy="4"/>
<feGaussianBlur stdDeviation="2"/>
<feComposite in2="hardAlpha" operator="out"/>
<feColorMatrix type="matrix" values="0 0 0 0 0 0 0 0 0 0 0 0 0 0 0 0 0 0 0.08 0"/>
<feBlend mode="normal" in2="BackgroundImageFix" result="effect1_dropShadow_470_2127"/>
<feBlend mode="normal" in="SourceGraphic" in2="effect1_dropShadow_470_2127" result="shape"/>
</filter>
<linearGradient id="paint0_linear_470_2127" x1="26" y1="13.9847" x2="42.7307" y2="37.4115" gradientUnits="userSpaceOnUse">
<stop stop-color="#F0D399"/>
<stop offset="1" stop-color="#D9A846"/>
</linearGradient>
<linearGradient id="paint1_linear_470_2127" x1="26" y1="7" x2="39.1327" y2="28.8642" gradientUnits="userSpaceOnUse">
<stop stop-color="#F0D399"/>
<stop offset="1" stop-color="#D9A846"/>
</linearGradient>
</defs>
</svg>
