<svg width="26" height="26" viewBox="0 0 26 26" fill="none" xmlns="http://www.w3.org/2000/svg">
<path d="M21.853 4.36797C21.7966 4.37231 16.0376 4.86631 13.299 2.28797C13.1343 2.12764 12.8743 2.12764 12.7053 2.28797C9.96662 4.86631 4.21196 4.37231 4.15129 4.36797C4.02996 4.35497 3.91296 4.39831 3.82196 4.48064C3.73096 4.56297 3.67896 4.67564 3.67896 4.79697V8.81397C3.67896 22.2343 12.844 23.816 12.935 23.829C12.9566 23.8333 12.9826 23.8333 13.0043 23.8333C13.026 23.8333 13.0476 23.8333 13.0693 23.829C13.1603 23.816 22.3253 22.2343 22.3253 8.81397V4.79697C22.3253 4.67564 22.2733 4.56297 22.1866 4.48064C22.0956 4.39831 21.9743 4.35497 21.853 4.36797ZM17.6323 14.1006C17.6323 14.339 17.4373 14.534 17.199 14.534H14.5296V17.2033C14.5296 17.4416 14.3346 17.6366 14.0963 17.6366H11.9036C11.6653 17.6366 11.4703 17.4416 11.4703 17.2033V14.534H8.80096C8.56262 14.534 8.36762 14.339 8.36762 14.1006V11.908C8.36762 11.6696 8.56262 11.4746 8.80096 11.4746H11.4703V8.80531C11.4703 8.56697 11.6653 8.37197 11.9036 8.37197H14.0963C14.3346 8.37197 14.5296 8.56697 14.5296 8.80531V11.4746H17.199C17.4373 11.4746 17.6323 11.6696 17.6323 11.908V14.1006Z" fill="#BDBDBD"/>
</svg>
