<svg width="26" height="26" viewBox="0 0 26 26" fill="none" xmlns="http://www.w3.org/2000/svg">
<path d="M6.76094 3.16374H19.2489C19.1798 2.3183 18.667 1.85715 17.72 1.85715H8.28002C7.34293 1.85715 6.82012 2.3183 6.76094 3.16374ZM4.74867 5.94027H21.2612C21.1231 5.02757 20.6496 4.50878 19.604 4.50878H6.40584C5.36024 4.50878 4.88676 5.02757 4.74867 5.94027ZM5.91263 23.2143H20.0874C22.1391 23.2143 23.2143 22.1767 23.2143 20.1976V10.523C23.2143 8.54386 22.1391 7.50627 20.0874 7.50627H5.91263C3.85103 7.50627 2.78571 8.53425 2.78571 10.523V20.1976C2.78571 22.1767 3.85103 23.2143 5.91263 23.2143Z" fill="#28AF6E"/>
</svg>
