<svg width="18" height="18" viewBox="0 0 18 18" fill="none" xmlns="http://www.w3.org/2000/svg">
<path d="M17.9974 14.0458C17.9961 14.0067 17.9947 13.9674 17.9933 13.9279C17.9919 13.8885 17.9905 13.8489 17.989 13.8092L17.9879 13.7794L17.9873 13.7645L17.9871 13.7608L17.9868 13.7274L17.9866 13.7259L17.9862 13.7197L17.9824 13.6703C17.9772 13.6044 17.9721 13.5382 17.967 13.472L17.963 13.4219L17.9571 13.3569C17.953 13.3136 17.949 13.2704 17.9449 13.2273C17.9407 13.1843 17.9364 13.1413 17.9322 13.0985C17.93 13.0771 17.9279 13.0558 17.9257 13.0345C17.9231 13.0147 17.9205 12.995 17.9179 12.9754C17.8963 12.8192 17.877 12.6657 17.8495 12.5182C17.8365 12.4444 17.8245 12.3718 17.811 12.301C17.7963 12.2304 17.7819 12.1614 17.7679 12.0942C17.7413 11.9597 17.708 11.8341 17.6798 11.718C17.6726 11.6891 17.6656 11.6606 17.6587 11.6329C17.6511 11.6053 17.6436 11.5784 17.6363 11.5521C17.6214 11.4997 17.6074 11.45 17.5942 11.4033C17.5807 11.3567 17.5689 11.3129 17.5565 11.2728C17.5437 11.2328 17.532 11.196 17.5214 11.1628C17.5057 11.114 17.4924 11.073 17.482 11.0405C17.4666 10.9926 17.4159 10.9656 17.3675 10.9794L14.3244 11.8467C14.278 11.8599 14.2493 11.9061 14.2581 11.9535C14.2614 11.9712 14.2652 11.9915 14.2694 12.0141C14.2737 12.037 14.2785 12.0623 14.2837 12.0898C14.2887 12.1174 14.2926 12.1477 14.2976 12.1796C14.3024 12.2116 14.3076 12.2457 14.3131 12.2816C14.3158 12.2996 14.3189 12.3178 14.3214 12.3368C14.3236 12.3557 14.3258 12.3751 14.3281 12.3949C14.3365 12.4742 14.3492 12.5592 14.3548 12.6503C14.3586 12.6957 14.3624 12.7423 14.3664 12.7898C14.3693 12.8375 14.3708 12.8864 14.3733 12.9359C14.3799 13.0346 14.3787 13.1375 14.3806 13.2412L14.381 13.2798L14.3797 13.314C14.3789 13.3368 14.3781 13.3597 14.3773 13.3826C14.3767 13.4054 14.3761 13.4282 14.3754 13.4511L14.3747 13.4854L14.3726 13.5347C14.3698 13.601 14.367 13.6674 14.3642 13.7334L14.362 13.783L14.3618 13.7891L14.3617 13.7906C14.3617 13.7981 14.3611 13.7317 14.3613 13.7604L14.3611 13.7628L14.3602 13.7726L14.3584 13.7921C14.356 13.8181 14.3537 13.844 14.3513 13.8698C14.3491 13.8956 14.3468 13.9213 14.3446 13.9468C14.3416 13.9722 14.3386 13.9976 14.3355 14.0227C14.3291 14.0729 14.3251 14.1226 14.3171 14.1711C14.3101 14.2196 14.3032 14.2672 14.2965 14.3138C14.2884 14.3602 14.2805 14.4055 14.2728 14.4496C14.2659 14.4938 14.2566 14.5363 14.2484 14.5774C14.2397 14.6185 14.2328 14.6584 14.2239 14.6963C14.2152 14.7341 14.2068 14.7703 14.1988 14.8048C14.1949 14.8218 14.191 14.8384 14.1873 14.8546C14.1835 14.8684 14.1798 14.8818 14.1762 14.8948C14.1741 14.9028 14.172 14.9103 14.17 14.918H17.8919C17.9418 14.918 17.9834 14.8788 17.9853 14.829C17.9853 14.8287 17.9853 14.8284 17.9853 14.8281C17.9884 14.7588 17.9916 14.6876 17.9948 14.6148C17.9962 14.5422 17.9976 14.4679 17.9991 14.3924C18.0012 14.3169 17.9989 14.2402 17.9987 14.1627C17.9983 14.124 17.9979 14.085 17.9974 14.0458Z" fill="white" fill-opacity="0.7"/>
<path d="M17.0297 10.1393C17.0796 10.1192 17.1024 10.0613 17.0794 10.0127C17.0691 9.99108 17.0572 9.9658 17.0436 9.93721C17.0309 9.91034 17.0167 9.8806 17.0014 9.84821C16.9815 9.80772 16.96 9.76396 16.937 9.71717C16.9139 9.67058 16.8893 9.621 16.8633 9.56874C16.8501 9.54157 16.8372 9.51916 16.8236 9.49365C16.8101 9.46872 16.7963 9.44322 16.7822 9.41716C16.7538 9.36517 16.7248 9.31081 16.6937 9.25514C16.6615 9.20008 16.6283 9.14313 16.5941 9.08458C16.577 9.05538 16.5596 9.02577 16.542 8.99583C16.5237 8.96635 16.505 8.93651 16.4862 8.90634C16.4484 8.84626 16.4097 8.78485 16.3704 8.72244C16.2875 8.60023 16.2049 8.47241 16.1128 8.34802C16.0902 8.3167 16.0674 8.28527 16.0446 8.25374L16.0103 8.20649L15.9746 8.16001C15.9269 8.09818 15.8789 8.03615 15.831 7.9741C15.7822 7.91276 15.7317 7.85272 15.6823 7.79245C15.6572 7.76251 15.633 7.73214 15.6075 7.70288C15.5819 7.67372 15.5564 7.64464 15.5309 7.61567C15.5055 7.58681 15.4802 7.55801 15.4549 7.52938C15.4299 7.50064 15.4046 7.47239 15.3785 7.44507C15.3269 7.3901 15.2759 7.33582 15.2258 7.28241C15.1756 7.22916 15.1236 7.17912 15.0741 7.1291C15.0243 7.07935 14.9759 7.03048 14.9264 6.9851C14.8775 6.93933 14.8299 6.8948 14.7839 6.85171C14.7381 6.80853 14.6913 6.76931 14.6478 6.73047C14.6038 6.69204 14.5617 6.65523 14.5216 6.62021C14.4806 6.58636 14.4416 6.55426 14.405 6.5241C14.3683 6.49404 14.3341 6.46593 14.3024 6.43993C14.2706 6.41403 14.2402 6.39158 14.2135 6.37064C14.1745 6.34072 14.1415 6.31545 14.1154 6.29536C14.0755 6.26474 14.0186 6.27128 13.9866 6.31007L12.3532 8.28714C12.3224 8.32443 12.3251 8.37893 12.3594 8.41295C12.3731 8.42645 12.3889 8.44206 12.4066 8.45962C12.4236 8.47669 12.4431 8.49477 12.463 8.51588C12.483 8.53696 12.5046 8.5598 12.5276 8.58416C12.5507 8.60841 12.5753 8.63422 12.6011 8.66143C12.6261 8.68951 12.6523 8.71909 12.6797 8.74991C12.7067 8.78103 12.7363 8.81191 12.7644 8.84636C12.7928 8.88046 12.8221 8.9157 12.8523 8.95195C12.883 8.98753 12.9123 9.02617 12.9426 9.0652C12.9727 9.10449 13.0048 9.14324 13.0349 9.18479C13.0651 9.22621 13.0958 9.26831 13.1268 9.31094C13.1427 9.33192 13.1577 9.3538 13.1725 9.37601C13.1875 9.39806 13.2025 9.42019 13.2176 9.44244C13.2327 9.46457 13.248 9.48681 13.2632 9.50913C13.2784 9.53145 13.2923 9.5548 13.307 9.57763C13.3358 9.62371 13.3657 9.66911 13.3941 9.71551C13.4217 9.76236 13.4493 9.80924 13.4768 9.85591L13.4975 9.89073L13.5168 9.9263C13.5298 9.9499 13.5426 9.97348 13.5555 9.99691C13.6084 10.0895 13.6531 10.1851 13.6999 10.2748C13.7213 10.3208 13.7424 10.366 13.763 10.4103C13.7733 10.4324 13.7835 10.4542 13.7935 10.4757C13.8029 10.4977 13.8121 10.5193 13.8212 10.5407C13.8395 10.5833 13.8572 10.6247 13.8745 10.6648C13.8904 10.7054 13.9057 10.7446 13.9205 10.7822C13.9278 10.801 13.935 10.8194 13.9421 10.8374C13.9488 10.8549 13.957 10.8739 13.9615 10.8885C13.972 10.9192 13.9819 10.9483 13.9913 10.9757C14.0008 11.0029 14.0098 11.0283 14.0181 11.0518C14.0289 11.0842 14.0389 11.1139 14.0479 11.1408C14.0579 11.1708 14.0667 11.1973 14.0743 11.2201C14.0913 11.2711 14.1478 11.2971 14.1978 11.2771L17.0297 10.1393Z" fill="white" fill-opacity="0.7"/>
<path d="M8.71212 6.60784C8.73686 6.61122 8.76422 6.61495 8.79404 6.61902C8.82368 6.62418 8.85574 6.62977 8.88997 6.63573C8.92415 6.64161 8.96053 6.64784 8.99886 6.65443C9.03217 6.65997 9.06667 6.668 9.10254 6.6755L10.1333 4.56701C10.0822 4.55903 10.0316 4.55111 9.9819 4.54336C9.94787 4.5383 9.91437 4.53249 9.881 4.52832C9.84764 4.52428 9.81467 4.52028 9.78214 4.51634C9.71717 4.50863 9.65398 4.50111 9.59287 4.49385C9.5316 4.4886 9.47239 4.48353 9.41557 4.47866C9.35873 4.4743 9.30452 4.46856 9.25262 4.46609C9.20082 4.46355 9.15167 4.46113 9.1055 4.45886C9.05936 4.45668 9.0162 4.45465 8.97632 4.45275C8.93639 4.45211 8.89971 4.45152 8.86657 4.45099C8.81996 4.45042 8.7804 4.44995 8.74868 4.44957C8.69838 4.44897 8.65675 4.48828 8.65435 4.53853L8.56035 6.50104C8.55804 6.54939 8.59292 6.59149 8.64088 6.59807C8.6613 6.60087 8.68512 6.60415 8.71212 6.60784Z" fill="white" fill-opacity="0.7"/>
<path d="M11.4826 7.68845C11.5103 7.70859 11.5366 7.72769 11.5612 7.74567C11.5859 7.76337 11.6091 7.77993 11.6305 7.79526C11.6397 7.80162 11.655 7.81322 11.6675 7.8225C11.6804 7.83211 11.6926 7.84126 11.7042 7.84994C11.7296 7.86887 11.752 7.88558 11.7712 7.89988C11.8143 7.93205 11.8755 7.92118 11.905 7.8762L13.2508 5.82618C13.2804 5.7812 13.2661 5.72071 13.2194 5.69393C13.1986 5.68203 13.1744 5.66813 13.1469 5.65238C13.1343 5.64514 13.1211 5.63755 13.1071 5.62955C13.092 5.62097 13.0761 5.61199 13.0596 5.60263C13.0213 5.58152 12.9798 5.55873 12.9356 5.53434C12.8913 5.51022 12.8442 5.48457 12.7946 5.45749C12.7473 5.43379 12.6976 5.40887 12.6457 5.38286C12.5936 5.35743 12.5404 5.32914 12.4834 5.30347C12.4266 5.27747 12.368 5.25059 12.3077 5.22294C12.2478 5.19467 12.1846 5.169 12.1204 5.14206C12.056 5.11568 11.9912 5.08685 11.9235 5.0614C11.9063 5.0549 11.8889 5.04833 11.8717 5.04177L11.2911 7.56171C11.3232 7.58187 11.3534 7.60325 11.3832 7.62253C11.4179 7.64552 11.451 7.66751 11.4826 7.68845Z" fill="white" fill-opacity="0.7"/>
<path d="M6.90504 6.59757C6.93104 6.59414 6.95656 6.5899 6.98204 6.58721C7.00753 6.58463 7.03271 6.58207 7.05753 6.57954C7.10708 6.5744 7.15526 6.5694 7.20189 6.56455C7.24865 6.56142 7.29384 6.55839 7.33721 6.55547C7.35885 6.55399 7.38003 6.55255 7.40074 6.55113C7.42139 6.54975 7.44208 6.54799 7.45982 6.54797C7.49637 6.547 7.53106 6.54611 7.56363 6.54526C7.59611 6.54424 7.62646 6.54327 7.65458 6.54238C7.68923 6.54215 7.72106 6.54194 7.74979 6.54175C7.78143 6.54158 7.8094 6.54143 7.83331 6.5413C7.88712 6.54102 7.92941 6.49545 7.92589 6.44175L7.80474 4.59306C7.80119 4.53936 7.75333 4.49971 7.69996 4.50645C7.67622 4.50944 7.6485 4.51295 7.6171 4.51691C7.588 4.5206 7.55577 4.52472 7.52068 4.52919C7.47922 4.53535 7.43439 4.54198 7.38647 4.54908C7.33871 4.55636 7.28785 4.56411 7.23425 4.57227C7.20682 4.57614 7.18156 4.58127 7.15505 4.58628C7.12862 4.59132 7.10158 4.59649 7.07398 4.60176C7.01886 4.6124 6.96147 4.62351 6.90201 4.63499C6.84303 4.64842 6.78202 4.66233 6.71932 4.6766C6.68804 4.68378 6.65632 4.69107 6.62422 4.69846C6.59216 4.70597 6.56001 4.71514 6.5274 4.72357C6.46232 4.74091 6.39587 4.75862 6.32827 4.77662C6.26134 4.7968 6.1933 4.8173 6.12445 4.83807C6.09012 4.8487 6.05542 4.85872 6.02094 4.87007C5.98661 4.8818 5.95203 4.89356 5.91735 4.90541C5.88274 4.91727 5.84799 4.92917 5.81314 4.94112C5.77828 4.95298 5.74336 4.9649 5.70891 4.97849C5.63985 5.00484 5.57052 5.03131 5.5012 5.05778C5.43217 5.0848 5.36428 5.11474 5.29624 5.14306C5.26233 5.15752 5.22832 5.17146 5.1948 5.1863C5.16151 5.20167 5.12833 5.21698 5.09527 5.23225C5.06228 5.24752 5.02941 5.26275 4.99672 5.27789C4.96404 5.29301 4.93149 5.3079 4.89985 5.32433C4.83633 5.35639 4.7736 5.38807 4.71191 5.41922C4.6502 5.45016 4.59138 5.4843 4.53297 5.51574C4.47482 5.54776 4.41764 5.5783 4.36369 5.61121C4.30945 5.64339 4.25668 5.67471 4.20563 5.70498C4.15444 5.73484 4.10696 5.76709 4.06042 5.79623C4.01421 5.82585 3.96993 5.85425 3.92781 5.88125C3.8866 5.90954 3.84749 5.93637 3.81075 5.96159C3.77411 5.98683 3.73981 6.01043 3.7081 6.03228C3.67642 6.05413 3.64839 6.07578 3.62257 6.0945C3.58757 6.12035 3.55769 6.1424 3.53352 6.16025C3.49314 6.19005 3.48366 6.24635 3.5119 6.28786L4.27955 7.41648C4.30687 7.45665 4.36028 7.46925 4.40259 7.44535C4.42209 7.43436 4.44513 7.42135 4.47141 7.40653C4.49432 7.39385 4.5191 7.37889 4.54708 7.36431C4.57505 7.34973 4.60529 7.334 4.6376 7.31717C4.66981 7.30033 4.7041 7.28241 4.74023 7.26351C4.77699 7.24589 4.81562 7.22736 4.85594 7.20804C4.89645 7.18917 4.93755 7.16755 4.98187 7.14869C5.02585 7.12939 5.07132 7.10944 5.11808 7.08892C5.16437 7.0676 5.2134 7.04897 5.26301 7.02908C5.31288 7.00975 5.36282 6.98789 5.41514 6.96941C5.46722 6.95064 5.5202 6.93156 5.5738 6.91223C5.60038 6.90213 5.62774 6.89359 5.65516 6.88483C5.68252 6.87602 5.71003 6.86717 5.73764 6.85829C5.76519 6.84938 5.79285 6.84044 5.82059 6.83146C5.84848 6.82299 5.87677 6.81541 5.90487 6.8073C5.96131 6.79169 6.01738 6.77437 6.07422 6.75986C6.1311 6.74578 6.18798 6.7317 6.24463 6.7177C6.27275 6.71021 6.30128 6.70436 6.32969 6.69851C6.35803 6.69254 6.3863 6.68659 6.41448 6.68066C6.44256 6.67469 6.47054 6.66876 6.49839 6.66285C6.5263 6.65728 6.55436 6.65298 6.58205 6.64799C6.63741 6.63839 6.69209 6.62887 6.7459 6.61955C6.7999 6.61211 6.85301 6.60475 6.90504 6.59757Z" fill="white" fill-opacity="0.7"/>
<path d="M1.67067 8.05679C1.65054 8.08525 1.63035 8.11384 1.61005 8.14254C1.58982 8.17123 1.56951 8.20003 1.54912 8.22892C1.52883 8.25786 1.50984 8.28787 1.4901 8.31739C1.45118 8.37683 1.41135 8.43581 1.37323 8.49591C1.336 8.55653 1.29877 8.61714 1.26169 8.67752L1.23403 8.72273L1.20776 8.76868C1.19031 8.79922 1.17292 8.82971 1.15558 8.86004C1.08472 8.98042 1.02316 9.10346 0.960597 9.22033C0.931475 9.27992 0.902827 9.33852 0.874785 9.3959C0.860877 9.42454 0.847103 9.45293 0.833517 9.48093C0.820728 9.50932 0.808109 9.53738 0.795642 9.56508C0.770821 9.62037 0.746682 9.67418 0.72332 9.72621C0.70153 9.7789 0.680461 9.82979 0.660244 9.87864C0.640425 9.92764 0.620398 9.974 0.603326 10.019C0.586482 10.064 0.570491 10.1068 0.555446 10.1469C0.540478 10.187 0.526476 10.2246 0.513535 10.2593C0.501579 10.2943 0.490609 10.3265 0.48068 10.3556C0.467796 10.3939 0.456731 10.4267 0.447693 10.4535C0.431683 10.501 0.45603 10.5525 0.50283 10.5705L1.21733 10.8444C1.26281 10.8618 1.31402 10.8415 1.33503 10.7975C1.34545 10.7758 1.3579 10.7497 1.37221 10.7198C1.38407 10.6952 1.39718 10.6679 1.41149 10.6381C1.42668 10.6088 1.44311 10.5772 1.46067 10.5433C1.47818 10.5096 1.49679 10.4736 1.51642 10.4357C1.5362 10.3979 1.55897 10.3592 1.58158 10.3183C1.60446 10.2776 1.62832 10.2351 1.65301 10.1912C1.67902 10.1481 1.70591 10.1036 1.73357 10.0578C1.74735 10.0349 1.76131 10.0117 1.77545 9.98827C1.79032 9.96525 1.80538 9.94198 1.8206 9.91839C1.85103 9.8714 1.88212 9.82342 1.91374 9.77458C1.98093 9.67946 2.04664 9.57929 2.12089 9.48268C2.13903 9.45825 2.15723 9.43375 2.1755 9.40918L2.20288 9.37229L2.23156 9.33621C2.26976 9.2881 2.30811 9.23985 2.34646 9.19159C2.38551 9.14391 2.42604 9.09747 2.46543 9.05064C2.4854 9.02739 2.50458 9.00367 2.52502 8.98106C2.54548 8.9585 2.56587 8.93599 2.58618 8.91357C2.60646 8.89117 2.62663 8.86887 2.64672 8.84667C2.66661 8.82435 2.6867 8.80243 2.70756 8.78141C2.7486 8.73891 2.78915 8.69693 2.82903 8.6556C2.86884 8.61435 2.91039 8.57608 2.94961 8.53739C2.98913 8.49898 3.02737 8.46109 3.06674 8.42636C3.10547 8.39112 3.14314 8.35684 3.17959 8.32366C3.21574 8.2903 3.253 8.26051 3.2874 8.23061C3.32204 8.20111 3.35523 8.17284 3.3868 8.14595C3.4178 8.12142 3.4472 8.09815 3.47483 8.07625C3.5023 8.05438 3.52802 8.0339 3.55179 8.01495C3.56271 8.00593 3.57749 7.99513 3.58997 7.98564C3.60278 7.97596 3.615 7.96675 3.6266 7.95801C3.65185 7.93893 3.67416 7.92211 3.69325 7.90771C3.73621 7.87529 3.74286 7.81348 3.70792 7.77256L2.89442 6.81952C2.85948 6.7786 2.79739 6.77547 2.75864 6.8128C2.74142 6.82939 2.72128 6.84878 2.6985 6.87074C2.68804 6.8808 2.67702 6.89143 2.66546 6.90255C2.65369 6.91398 2.64249 6.92438 2.6279 6.93929C2.60001 6.96743 2.56987 6.99787 2.53764 7.03039C2.50558 7.06292 2.47146 7.09754 2.43547 7.13403C2.40203 7.17026 2.36687 7.20834 2.33018 7.24807C2.29396 7.28811 2.25489 7.32845 2.21709 7.37267C2.17914 7.41667 2.13992 7.46216 2.09958 7.5089C2.05875 7.5551 2.01924 7.60472 1.9786 7.65507C1.93826 7.70567 1.89574 7.75617 1.85518 7.80968C1.81472 7.86318 1.77361 7.91758 1.732 7.97268C1.71085 7.99998 1.69064 8.02818 1.67067 8.05679Z" fill="white" fill-opacity="0.7"/>
<path d="M0.19241 11.3982C0.187654 11.4216 0.182084 11.449 0.175774 11.48C0.169995 11.5085 0.163591 11.54 0.156619 11.5743C0.149779 11.6094 0.14309 11.6508 0.135625 11.6931C0.128273 11.7358 0.120467 11.7813 0.112244 11.8292C0.108265 11.8531 0.103718 11.8777 0.0999472 11.9026C0.0965935 11.9273 0.093183 11.9526 0.0896777 11.9784C0.0763388 12.0817 0.0587746 12.1929 0.0486567 12.3116C0.0427831 12.3708 0.0367578 12.4316 0.0305999 12.4937C0.025522 12.5559 0.0221305 12.6196 0.0177536 12.6842C0.00752209 12.8132 0.0056463 12.9471 0.00138315 13.0825L0 13.1334L0.000246315 13.1845C0.000435789 13.2186 0.000625262 13.2528 0.000814735 13.2871C0.00102316 13.3213 0.00123158 13.3556 0.00142105 13.3899L0.00174315 13.4414L0.00371368 13.4929C0.00649893 13.5614 0.00928419 13.63 0.0120694 13.6983L0.0141726 13.7494L0.0148168 13.7659L0.0157263 13.7782L0.0175452 13.8028C0.0199705 13.8356 0.0223768 13.8684 0.0247831 13.901C0.0271894 13.9336 0.0295957 13.966 0.0319641 13.9983C0.035242 14.032 0.038482 14.0656 0.041741 14.0989C0.0450189 14.1322 0.0482778 14.1653 0.0515178 14.1982C0.0531473 14.2146 0.0547767 14.231 0.0564062 14.2473C0.0584336 14.2633 0.0604609 14.2793 0.0624693 14.2952C0.0705409 14.3586 0.0784798 14.4211 0.0862482 14.4822C0.0956272 14.543 0.104798 14.6026 0.113703 14.6605C0.12204 14.7185 0.132783 14.7745 0.142654 14.8287C0.143469 14.833 0.144284 14.8373 0.14508 14.8416C0.153322 14.8859 0.191861 14.918 0.236898 14.918H0.488727C0.5425 14.918 0.585169 14.8727 0.582005 14.819C0.581152 14.8047 0.580281 14.7902 0.579315 14.7756C0.576169 14.7234 0.57238 14.6696 0.571167 14.614C0.569348 14.5585 0.567491 14.5015 0.565578 14.4433C0.565218 14.3851 0.564858 14.3256 0.564498 14.2651C0.564403 14.25 0.564308 14.2348 0.564214 14.2196C0.564536 14.2046 0.564877 14.1896 0.565218 14.1744C0.565881 14.1443 0.566544 14.1138 0.567226 14.0832C0.567889 14.0527 0.568571 14.022 0.569254 13.9911C0.570769 13.9587 0.572266 13.9262 0.573801 13.8936C0.575317 13.8609 0.576851 13.8281 0.578367 13.7953L0.579523 13.7706L0.580091 13.7582L0.580167 13.7567C0.580167 13.7527 0.580243 13.7603 0.580281 13.759L0.580508 13.756L0.580982 13.7501L0.584809 13.7022C0.589887 13.6385 0.594984 13.5745 0.6001 13.5106L0.604003 13.4627L0.609517 13.4149C0.613192 13.3831 0.616849 13.3514 0.620506 13.3197C0.624144 13.288 0.627782 13.2564 0.631401 13.2249L0.636801 13.1777L0.643792 13.1309C0.662967 13.0064 0.679262 12.884 0.703135 12.7667C0.714333 12.708 0.724356 12.6502 0.735857 12.594C0.748382 12.5379 0.760621 12.4831 0.772539 12.4298C0.794594 12.3229 0.823186 12.2235 0.846453 12.1314C0.852421 12.1084 0.858257 12.0859 0.86396 12.0639C0.869985 12.0423 0.876484 12.0218 0.882472 12.0015C0.894541 11.961 0.906004 11.9227 0.916766 11.8867C0.927775 11.8503 0.936813 11.8178 0.947347 11.7852C0.958394 11.7519 0.968512 11.7214 0.977682 11.6939C0.987648 11.6638 0.996459 11.6373 1.004 11.6146C1.02096 11.5635 0.991343 11.5088 0.939352 11.495L0.308046 11.3266C0.256035 11.3128 0.203134 11.3454 0.19241 11.3982Z" fill="white" fill-opacity="0.7"/>
<path d="M7.33862 14.6703C7.54401 14.7707 7.76159 14.8183 7.97579 14.8183C8.51348 14.8183 9.03021 14.5188 9.28227 14.0032C9.33081 13.9039 9.36839 13.7943 9.39283 13.6912L10.8627 7.31128L11.4225 4.88161L11.7693 3.37649C11.8097 3.20132 11.6703 3.08199 11.5305 3.08199C11.4487 3.08199 11.3667 3.1229 11.3204 3.21743L10.6147 4.66089L9.5737 6.7903L6.67143 12.7267C6.31895 13.4477 6.61767 14.3179 7.33862 14.6703ZM8.02967 12.6158C8.423 12.6158 8.74187 12.9346 8.74187 13.328C8.74187 13.7213 8.423 14.0402 8.02967 14.0402C7.63634 14.0402 7.31748 13.7213 7.31748 13.328C7.31748 12.9346 7.63634 12.6158 8.02967 12.6158Z" fill="white"/>
</svg>
